<svg xmlns="http://www.w3.org/2000/svg" width="83.997" height="82.997" viewBox="0 0 83.997 82.997">
  <g id="email" transform="translate(-24.001 -156)">
    <g id="Group_15" data-name="Group 15" transform="translate(24.001 156)">
      <path id="Path_2" data-name="Path 2" d="M42,0C18.8,0,0,18.58,0,41.5S18.8,83,42,83,84,64.416,84,41.5,65.193,0,42,0Zm0,14.576L66.853,29.889H17.146ZM67.162,54.342h0a4.473,4.473,0,0,1-4.5,4.446H21.339a4.473,4.473,0,0,1-4.5-4.446V30.864a4.372,4.372,0,0,1,.071-.761L40.656,44.734c.029.018.06.03.09.047l.1.05a2.511,2.511,0,0,0,.517.2c.018,0,.036.007.055.011a2.591,2.591,0,0,0,.586.073h0a2.545,2.545,0,0,0,.586-.073c.018,0,.036-.006.055-.011a2.536,2.536,0,0,0,.517-.2l.1-.05c.03-.017.061-.029.09-.047L67.092,30.1a4.367,4.367,0,0,1,.071.761V54.342Z" transform="translate(-0.001 0)"/>
    </g>
  </g>
</svg>
